<svg width="204" height="40" viewBox="0 0 204 40" fill="none" xmlns="http://www.w3.org/2000/svg">
<g clip-path="url(#clip0_5_69)">
<path d="M54.7659 14.2747C53.6915 17.6516 51.5426 19.8618 48.0737 20.967C53.4152 23.1466 55.9018 26.9225 54.6124 32.571C53.8143 36.1627 50.3147 38.9562 46.7844 39.2325C42.0568 39.6009 39.0484 37.6055 36.6539 32.4482C34.8734 37.1757 31.558 39.6009 26.462 39.2325C22.9624 38.9562 20.0461 36.439 18.5725 32.3254C17.6823 34.9961 16.2088 37.0222 13.845 38.2502C11.4505 39.5088 8.93325 39.6623 6.38528 38.772C2.39449 37.3906 0.030717 33.584 0.337701 29.1021C0.583288 25.4182 3.65313 21.9186 7.36763 21.0898C12.1873 20.0153 15.5948 22.0107 18.6339 27.6899C19.7084 24.3438 21.888 22.1949 25.3876 21.0284C22.8396 20.1995 20.967 18.8795 19.7084 16.8227C18.4497 14.7352 18.0507 12.4635 18.5418 10.0691C19.2786 6.38525 22.6554 3.22331 26.2778 2.85493C31.0975 2.33306 34.4129 4.48195 36.6539 9.63928C38.2809 5.28011 41.2586 2.70144 45.9862 2.82423C50.4682 2.94703 53.231 5.49499 54.7352 9.63928C56.9148 3.5303 61.888 2.21027 65.6639 2.94703C70.0537 3.83728 73.1236 7.70528 73.0622 12.1258C73.0315 16.4236 69.8388 20.2609 65.6946 21.0284C60.7521 21.9493 56.9455 19.6163 54.7659 14.2747ZM36.6846 14.1826C35.5794 17.713 33.3999 19.8618 30.0844 20.9363C34.9348 23.7912 35.2111 24.0982 36.7153 27.782C37.8204 24.3745 40 22.1642 43.561 21.0284C39.9386 19.8925 37.8204 17.6823 36.6846 14.1826Z" fill="white"/>
<path d="M118.741 29.9616C118.741 27.8434 118.741 25.848 118.741 23.8526C118.741 20.1381 118.772 16.3929 118.68 12.6784C118.619 9.63929 117.176 7.95088 114.689 7.85879C111.926 7.73599 109.808 9.60859 109.47 12.4328C109.378 13.1696 109.348 13.8757 109.348 14.6124C109.348 19.2479 109.348 23.914 109.348 28.5495C109.348 29.01 109.348 29.4398 109.348 29.9616C106.738 29.9616 104.252 29.9616 101.673 29.9616C101.673 20.66 101.673 11.3584 101.673 1.99539C104.068 1.99539 106.431 1.99539 108.918 1.99539C108.918 3.13123 108.918 4.26707 108.918 5.37222C108.979 5.43361 109.071 5.49501 109.133 5.55641C111.22 2.79355 113.922 1.16654 117.391 1.19723C120.921 1.19723 123.745 2.42517 125.434 5.77129C125.587 5.5871 125.71 5.46431 125.833 5.31082C129.271 0.798155 134.459 0.306981 138.972 2.24098C142.318 3.6838 143.668 6.66155 143.73 10.0384C143.883 16.6078 143.761 23.1466 143.761 29.716C143.761 29.7774 143.699 29.8388 143.638 29.9923C141.151 29.9923 138.634 29.9923 135.963 29.9923C135.963 29.5625 135.963 29.1635 135.963 28.7644C135.963 23.7299 135.963 18.6953 135.963 13.6915C135.963 12.924 135.902 12.1566 135.779 11.4198C135.349 9.05602 134.336 8.13507 131.972 7.82809C129.977 7.5825 128.012 8.56485 127.306 10.4375C126.846 11.5733 126.631 12.8933 126.6 14.1213C126.508 19.0023 126.569 23.8526 126.569 28.7337C126.569 29.1328 126.569 29.5625 126.569 30.023C123.929 29.9616 121.412 29.9616 118.741 29.9616Z" fill="white"/>
<path d="M196.5 3.7145C196.5 2.79355 196.5 1.96469 196.5 1.07444C198.956 1.07444 201.351 1.07444 203.899 1.07444C203.899 1.50422 203.899 1.9033 203.899 2.30238C203.899 10.5909 203.899 18.8795 203.899 27.1681C203.899 28.4267 203.837 29.716 203.622 30.944C203.039 34.3515 201.259 36.9609 198.005 38.2809C193.124 40.307 188.12 40.6447 183.116 38.7414C179.862 37.5134 177.345 35.4259 176.546 31.7728C176.516 31.6193 176.485 31.4658 176.485 31.3124C176.485 31.251 176.485 31.1589 176.516 30.9133C179.187 30.7598 181.857 30.6063 184.559 30.4221C185.695 33.8603 189.286 34.198 192.418 33.3077C195.426 32.4482 196.777 29.2556 196.071 24.8964C193.738 27.2909 190.852 27.9662 187.69 27.9662C181.243 27.9355 176.608 24.0061 175.564 17.6516C174.827 13.1696 175.38 8.93323 178.081 5.15733C182.195 -0.613971 189.44 -0.675368 193.86 1.68841C194.781 2.21028 195.549 2.97774 196.5 3.7145ZM182.778 14.3054C182.809 14.3054 182.87 14.3361 182.901 14.3361C182.901 14.6124 182.901 14.858 182.901 15.1343C183.055 18.419 185.48 21.3661 188.304 21.7038C192.049 22.1642 194.935 20.3223 195.825 16.6692C196.193 15.1343 196.224 13.3845 195.948 11.8189C195.426 8.77974 192.909 6.81504 189.992 6.69225C186.708 6.53875 184.405 8.13507 183.392 11.2663C183.116 12.2794 182.993 13.3231 182.778 14.3054Z" fill="white"/>
<path d="M173.998 17.7437C166.723 17.7437 159.908 17.7437 153.124 17.7437C152.632 20.4144 154.812 23.3922 157.759 24.1596C160.675 24.9271 163.377 23.9141 165.096 21.4582C165.249 21.2433 165.526 20.9977 165.771 20.9977C166.876 20.967 167.982 21.0284 169.117 21.0591C170.468 21.1205 171.85 21.2126 173.323 21.3047C172.187 24.6815 170.345 27.4137 167.183 28.9179C162.364 31.2203 157.391 31.3431 152.571 28.9486C146.708 26.0322 144.467 19.6163 145.081 13.845C145.449 10.3454 146.708 7.21413 149.163 4.66616C152.939 0.76747 157.667 -0.245577 162.855 0.920962C168.289 2.1489 171.481 5.8327 172.985 11.0207C173.569 13.1082 173.661 15.3492 173.998 17.7437ZM165.464 12.218C165.219 10.0384 164.175 8.41137 162.333 7.39832C160.153 6.17039 157.913 6.23178 155.825 7.64391C154.259 8.71835 153.338 10.2226 153.185 12.218C157.329 12.218 161.351 12.218 165.464 12.218Z" fill="white"/>
<path d="M99.5549 10.4988C97.2525 10.4988 95.0422 10.4988 92.8319 10.4988C91.3277 6.78434 88.2886 5.43361 84.4206 6.75364C83.8987 6.93783 83.3461 7.21412 82.947 7.5825C81.5963 8.77974 81.8112 10.7137 83.4996 11.297C85.4029 11.9724 87.429 12.218 89.3937 12.7091C91.3891 13.2003 93.4152 13.6301 95.3492 14.3361C102.134 16.7306 101.274 25.0192 97.6209 28.1197C95.4413 29.9616 92.8933 30.9133 90.0998 31.2817C85.8941 31.8035 81.9033 31.251 78.3423 28.7644C75.7943 27.0146 74.3515 24.5894 74.2901 21.3354C76.6232 21.3354 78.8949 21.3354 81.1665 21.3354C82.6094 25.5411 86.8764 27.2295 90.8672 25.1727C92.0338 24.5587 92.8012 23.6992 92.7091 22.2563C92.617 20.8442 91.6961 20.1995 90.5295 19.9233C87.9509 19.3093 85.3722 18.8488 82.7936 18.2962C81.9647 18.112 81.1665 17.8972 80.3684 17.5902C77.4213 16.4543 75.2417 14.551 75.0269 11.1742C74.812 7.85879 75.9478 5.03453 78.8335 3.16193C82.1182 1.01305 85.802 0.675363 89.5472 1.13584C91.1128 1.32003 92.7091 1.78051 94.152 2.45587C97.5288 3.99079 99.1865 6.78434 99.5549 10.4988Z" fill="white"/>
</g>
<defs>
<clipPath id="clip0_5_69">
<rect width="203.929" height="40" fill="white"/>
</clipPath>
</defs>
</svg>
