<svg width="102" height="20" viewBox="0 0 102 20" fill="none" xmlns="http://www.w3.org/2000/svg">
<g clip-path="url(#clip0_10_267)">
<path d="M27.383 7.1374C26.8457 8.82581 25.7713 9.93095 24.0368 10.4835C26.7076 11.5733 27.9509 13.4613 27.3062 16.2855C26.9071 18.0814 25.1573 19.4781 23.3922 19.6163C21.0284 19.8005 19.5242 18.8028 18.3269 16.2241C17.4367 18.5879 15.779 19.8005 13.231 19.6163C11.4812 19.4781 10.023 18.2195 9.28627 16.1627C8.84114 17.4981 8.10438 18.5112 6.92249 19.1251C5.72526 19.7544 4.46662 19.8312 3.19264 19.3861C1.19725 18.6953 0.0153585 16.792 0.16885 14.5511C0.291644 12.7092 1.82656 10.9593 3.68382 10.5449C6.09364 10.0077 7.7974 11.0054 9.31697 13.845C9.85419 12.1719 10.944 11.0975 12.6938 10.5142C11.4198 10.0998 10.4835 9.43978 9.85419 8.41138C9.22487 7.36763 9.02533 6.23179 9.27092 5.03456C9.6393 3.19265 11.3277 1.61169 13.1389 1.4275C15.5487 1.16656 17.2065 2.241 18.3269 4.81967C19.1405 2.64008 20.6293 1.35075 22.9931 1.41215C25.2341 1.47354 26.6155 2.74753 27.3676 4.81967C28.4574 1.76518 30.944 1.10516 32.8319 1.47354C35.0269 1.91867 36.5618 3.85267 36.5311 6.06295C36.5157 8.21184 34.9194 10.1305 32.8473 10.5142C30.3761 10.9747 28.4728 9.80816 27.383 7.1374ZM18.3423 7.09135C17.7897 8.85651 16.6999 9.93095 15.0422 10.4682C17.4674 11.8956 17.6055 12.0491 18.3576 13.891C18.9102 12.1873 20 11.0821 21.7805 10.5142C19.9693 9.9463 18.9102 8.84116 18.3423 7.09135Z" fill="white"/>
<path d="M59.3707 14.9808C59.3707 13.9217 59.3707 12.924 59.3707 11.9263C59.3707 10.0691 59.386 8.19647 59.34 6.33922C59.3093 4.81965 58.5879 3.97544 57.3446 3.92939C55.9632 3.868 54.9041 4.8043 54.7352 6.21642C54.6892 6.5848 54.6738 6.93783 54.6738 7.30622C54.6738 9.62394 54.6738 11.957 54.6738 14.2748C54.6738 14.505 54.6738 14.7199 54.6738 14.9808C53.3692 14.9808 52.1259 14.9808 50.8365 14.9808C50.8365 10.33 50.8365 5.6792 50.8365 0.997696C52.0338 0.997696 53.2157 0.997696 54.459 0.997696C54.459 1.56562 54.459 2.13354 54.459 2.68611C54.4897 2.71681 54.5357 2.7475 54.5664 2.7782C55.6101 1.39678 56.9609 0.583268 58.6953 0.598617C60.4605 0.598617 61.8726 1.21258 62.7168 2.88565C62.7936 2.79355 62.855 2.73216 62.9164 2.65541C64.6355 0.399078 67.2295 0.153491 69.4858 1.12049C71.1589 1.8419 71.8342 3.33077 71.8649 5.01919C71.9417 8.30391 71.8803 11.5733 71.8803 14.858C71.8803 14.8887 71.8496 14.9194 71.8189 14.9962C70.5756 14.9962 69.317 14.9962 67.9816 14.9962C67.9816 14.7813 67.9816 14.5817 67.9816 14.3822C67.9816 11.8649 67.9816 9.34766 67.9816 6.84574C67.9816 6.46201 67.9509 6.07828 67.8895 5.7099C67.6746 4.52801 67.1681 4.06754 65.9862 3.91404C64.9885 3.79125 64.0062 4.28242 63.6531 5.21873C63.4229 5.78665 63.3154 6.44666 63.3001 7.06063C63.254 9.50115 63.2847 11.9263 63.2847 14.3668C63.2847 14.5664 63.2847 14.7813 63.2847 15.0115C61.9647 14.9808 60.7061 14.9808 59.3707 14.9808Z" fill="white"/>
<path d="M98.2502 1.85727C98.2502 1.39679 98.2502 0.982362 98.2502 0.537235C99.4781 0.537235 100.675 0.537235 101.949 0.537235C101.949 0.752124 101.949 0.951664 101.949 1.1512C101.949 5.29549 101.949 9.43977 101.949 13.5841C101.949 14.2134 101.919 14.858 101.811 15.472C101.52 17.1758 100.629 18.4804 99.0023 19.1405C96.5618 20.1535 94.0599 20.3223 91.558 19.3707C89.9309 18.7567 88.6723 17.713 88.2732 15.8864C88.2579 15.8097 88.2425 15.7329 88.2425 15.6562C88.2425 15.6255 88.2425 15.5794 88.2579 15.4567C89.5933 15.3799 90.9286 15.3032 92.2794 15.2111C92.8473 16.9302 94.6431 17.099 96.2088 16.6539C97.713 16.2241 98.3883 14.6278 98.0353 12.4482C96.8688 13.6454 95.426 13.9831 93.845 13.9831C90.6217 13.9678 88.3039 12.0031 87.7821 8.8258C87.4137 6.58482 87.69 4.46663 89.0407 2.57868C91.0975 -0.30697 94.7199 -0.337669 96.9302 0.844219C97.3906 1.10516 97.7744 1.48889 98.2502 1.85727ZM91.3891 7.15274C91.4045 7.15274 91.4352 7.16809 91.4505 7.16809C91.4505 7.30623 91.4505 7.42902 91.4505 7.56717C91.5273 9.20953 92.7398 10.6831 94.152 10.8519C96.0246 11.0821 97.4674 10.1612 97.9125 8.33463C98.0967 7.56717 98.1121 6.69226 97.9739 5.90945C97.713 4.38988 96.4544 3.40753 94.9962 3.34614C93.3538 3.26939 92.2026 4.06755 91.6961 5.63317C91.558 6.13969 91.4966 6.66156 91.3891 7.15274Z" fill="white"/>
<path d="M86.9993 8.87185C83.3615 8.87185 79.954 8.87185 76.5618 8.87185C76.3162 10.2072 77.406 11.6961 78.8795 12.0798C80.3377 12.4636 81.6884 11.957 82.548 10.7291C82.6247 10.6217 82.7629 10.4989 82.8857 10.4989C83.4382 10.4835 83.9908 10.5142 84.5587 10.5296C85.2341 10.5603 85.9248 10.6063 86.6616 10.6524C86.0937 12.3408 85.1727 13.7069 83.5917 14.459C81.1819 15.6102 78.6953 15.6715 76.2855 14.4743C73.3538 13.0161 72.2333 9.80816 72.5403 6.92251C72.7245 5.1727 73.3538 3.60708 74.5818 2.3331C76.4697 0.38375 78.8335 -0.122773 81.4275 0.460496C84.1443 1.07446 85.7406 2.91637 86.4927 5.51038C86.7844 6.55413 86.8304 7.67462 86.9993 8.87185ZM82.7322 6.109C82.6094 5.01921 82.0875 4.2057 81.1666 3.69918C80.0768 3.08521 78.9563 3.11591 77.9125 3.82197C77.1297 4.35919 76.6693 5.1113 76.5925 6.109C78.6646 6.109 80.6754 6.109 82.7322 6.109Z" fill="white"/>
<path d="M49.7775 5.24944C48.6263 5.24944 47.5211 5.24944 46.416 5.24944C45.6639 3.39219 44.1443 2.71682 42.2103 3.37684C41.9494 3.46893 41.6731 3.60708 41.4736 3.79127C40.7982 4.38988 40.9056 5.35688 41.7498 5.64852C42.7015 5.9862 43.7145 6.10899 44.6969 6.35458C45.6946 6.60017 46.7076 6.81506 47.6746 7.16809C51.0668 8.36533 50.637 12.5096 48.8105 14.0599C47.7207 14.9808 46.4467 15.4567 45.0499 15.6408C42.9471 15.9018 40.9517 15.6255 39.1712 14.3822C37.8972 13.5073 37.1758 12.2947 37.1451 10.6677C38.3116 10.6677 39.4475 10.6677 40.5833 10.6677C41.3047 12.7705 43.4382 13.6147 45.4336 12.5864C46.0169 12.2794 46.4006 11.8496 46.3546 11.1282C46.3085 10.4221 45.8481 10.0998 45.2648 9.96164C43.9755 9.65466 42.6861 9.42442 41.3968 9.14813C40.9824 9.05604 40.5833 8.9486 40.1842 8.7951C38.7107 8.22718 37.6209 7.27553 37.5135 5.58712C37.406 3.92941 37.9739 2.51728 39.4168 1.58098C41.0591 0.506538 42.901 0.337697 44.7736 0.567935C45.5564 0.66003 46.3546 0.890268 47.076 1.22795C48.7644 1.99541 49.5933 3.39219 49.7775 5.24944Z" fill="white"/>
</g>
<defs>
<clipPath id="clip0_10_267">
<rect width="101.965" height="20" fill="white"/>
</clipPath>
</defs>
</svg>
