<svg width="56" height="21" viewBox="0 0 56 21" fill="none" xmlns="http://www.w3.org/2000/svg">
<path d="M55.1875 0.795166H0.1875V20.3872H55.1875V0.795166Z" fill="#333333"/>
<path d="M42.4634 11.6118C41.4278 11.6118 39.7634 11.4418 39.2825 12.3261C39.0606 12.8703 39.0236 15.0472 39.0236 16.4418C39.0236 17.1561 39.0976 18.0064 37.877 17.9724C36.7674 17.9384 36.9154 17.1561 36.9154 16.4758C36.8784 15.5914 36.9154 14.6731 36.9154 13.7887C36.8784 11.7819 37.2113 9.91113 40.3922 9.63902C42.7224 9.43494 46.1992 9.50296 48.3074 9.46895C50.1198 9.43494 50.6006 8.99276 50.6006 7.08798C50.6006 5.11517 49.639 4.80905 47.8266 4.80905C44.9416 4.80905 41.3908 4.84306 38.5058 4.80905C37.877 4.80905 37.0263 4.9451 36.9893 3.99271C36.9154 2.90427 37.877 3.07434 38.5428 3.07434C41.7237 3.04032 44.9416 3.04032 48.1225 3.07434C50.8595 3.10835 52.1541 4.09476 52.45 6.30566C52.8199 9.16283 52.302 11.4077 49.491 11.5098" fill="white"/>
<path d="M15.4632 9.63856C17.8674 10.2168 18.7921 11.7814 18.7551 13.9583C18.7551 14.9787 18.7551 15.9992 18.7181 17.0196C18.6811 17.6658 18.3112 18.074 17.5345 18.006C16.8318 17.972 16.6468 17.4958 16.6468 16.9515C16.6468 15.9992 16.6468 15.0468 16.6098 14.0604C16.5359 12.0876 15.9441 11.5093 13.8358 11.4753C11.7645 11.4413 9.65624 11.4753 7.58495 11.4413C4.47802 11.3733 3.03552 10.0127 3.03552 7.25759C3.03552 4.50246 4.51501 3.1419 7.58495 3.10789C10.7659 3.07388 13.9837 3.10789 17.1646 3.10789C17.8304 3.10789 18.6441 3.03986 18.6441 3.95824C18.6441 4.8426 17.8674 4.8426 17.2016 4.8426C14.2057 4.8426 11.1727 4.8426 8.17675 4.8426C7.03014 4.8426 5.88354 4.91063 5.47668 6.13513C5.10681 7.2916 4.99585 8.48209 6.2904 9.33243C9.32335 9.63856 12.3933 9.12835 15.4632 9.63856Z" fill="white"/>
<path d="M32.0704 16.2715C32.9211 16.2715 33.7718 16.2715 34.6595 16.3055C35.2513 16.3395 35.7692 16.4415 35.7692 17.1558C35.7692 17.8361 35.2883 18.0402 34.6965 18.0402C34.0677 18.0402 24.784 18.0402 23.4894 18.0402C21.6031 18.0402 20.5674 16.7136 20.2345 15.047C19.7907 12.9041 20.7523 11.2374 21.5661 10.5571C21.862 10.285 22.6387 9.84283 23.7853 9.67276C24.71 9.60473 29.2224 9.63874 31.8115 9.57071C33.254 9.46867 33.6239 8.5503 33.6609 7.46185C33.7349 6.40742 33.6979 5.31898 33.6979 4.23053C33.6979 3.58427 33.9198 3.14209 34.7335 3.14209C35.5472 3.14209 35.8061 3.55026 35.8061 4.19652C35.8061 4.26455 35.8061 4.29856 35.8061 4.36659C35.9911 10.183 34.5856 11.4415 31.0718 11.4755C29.8512 11.4755 26.3004 11.4415 25.0059 11.4755C23.8223 11.4755 22.4907 11.6456 22.1949 12.9041C21.899 14.1626 21.899 16.2374 23.8593 16.2374" fill="white"/>
</svg>
