<svg width="80" height="30" viewBox="0 0 80 30" fill="none" xmlns="http://www.w3.org/2000/svg">
<path d="M80 0H0V30H80V0Z" fill="#333333"/>
<path d="M61.4929 16.5627C59.9866 16.5627 57.5656 16.3022 56.8662 17.6564C56.5434 18.4897 56.4896 21.8231 56.4896 23.9585C56.4896 25.0522 56.5972 26.3543 54.8218 26.3022C53.2078 26.2502 53.423 25.0522 53.423 24.0106C53.3692 22.6564 53.423 21.2502 53.423 19.896C53.3692 16.8231 53.8534 13.9585 58.4802 13.5418C61.8695 13.2293 66.9267 13.3335 69.9933 13.2814C72.6295 13.2293 73.3289 12.5522 73.3289 9.63558C73.3289 6.61475 71.9301 6.146 69.2939 6.146C65.0975 6.146 59.9328 6.19808 55.7364 6.146C54.8218 6.146 53.5844 6.35433 53.5306 4.896C53.423 3.22933 54.8218 3.48975 55.7902 3.48975C60.4169 3.43766 65.0975 3.43766 69.7243 3.48975C73.7055 3.54183 75.5884 5.05225 76.0188 8.43766C76.5568 12.8127 75.8036 16.2502 71.7149 16.4064" fill="white"/>
<path d="M22.2192 13.5415C25.7162 14.4269 27.0612 16.8227 27.0074 20.156C27.0074 21.7185 27.0074 23.281 26.9536 24.8435C26.8998 25.8331 26.3618 26.4581 25.232 26.354C24.2098 26.3019 23.9408 25.5727 23.9408 24.7394C23.9408 23.281 23.9408 21.8227 23.887 20.3123C23.7794 17.2915 22.9186 16.406 19.8521 16.354C16.8393 16.3019 13.7727 16.354 10.7599 16.3019C6.24075 16.1977 4.14257 14.1144 4.14257 9.89563C4.14257 5.67688 6.29455 3.59354 10.7599 3.54146C15.3867 3.48938 20.0673 3.54146 24.694 3.54146C25.6624 3.54146 26.846 3.43729 26.846 4.84354C26.846 6.19771 25.7162 6.19771 24.7478 6.19771C20.39 6.19771 15.9785 6.19771 11.6207 6.19771C9.95293 6.19771 8.28514 6.30188 7.69334 8.17688C7.15535 9.94771 6.99395 11.7706 8.87694 13.0727C13.2885 13.5415 17.7539 12.7602 22.2192 13.5415Z" fill="white"/>
<path d="M46.3791 24.1042C47.6165 24.1042 48.8539 24.1042 50.1451 24.1562C51.0059 24.2083 51.759 24.3646 51.759 25.4583C51.759 26.5 51.0597 26.8125 50.1989 26.8125C49.2843 26.8125 35.7806 26.8125 33.8976 26.8125C31.1538 26.8125 29.6474 24.7813 29.1632 22.2292C28.5176 18.9479 29.9164 16.3958 31.1 15.3542C31.5304 14.9375 32.6602 14.2604 34.328 14C35.673 13.8958 42.2365 13.9479 46.0025 13.8438C48.1007 13.6875 48.6387 12.2813 48.6925 10.6146C48.8001 9 48.7463 7.33333 48.7463 5.66667C48.7463 4.67708 49.0691 4 50.2527 4C51.4363 4 51.8128 4.625 51.8128 5.61458C51.8128 5.71875 51.8128 5.77083 51.8128 5.875C52.0818 14.7813 50.0375 16.7083 44.9265 16.7604C43.1511 16.7604 37.9864 16.7083 36.1034 16.7604C34.3818 16.7604 32.445 17.0208 32.0146 18.9479C31.5842 20.875 31.5842 24.0521 34.4356 24.0521" fill="white"/>
</svg>
